<?xml version="1.0" standalone="no"?>
<!DOCTYPE svg PUBLIC "-//W3C//DTD SVG 1.1//EN" "http://www.w3.org/Graphics/SVG/1.1/DTD/svg11.dtd" >
<svg xmlns="http://www.w3.org/2000/svg" xmlns:xlink="http://www.w3.org/1999/xlink" version="1.1">
<metadata></metadata>
<defs>
<font id="helveticacondensedbold" horiz-adv-x="1024" >
<font-face units-per-em="2048" ascent="1638" descent="-410" />
<missing-glyph horiz-adv-x="512" />
<glyph horiz-adv-x="0" />
<glyph unicode="&#xd;" horiz-adv-x="340" />
<glyph unicode=" "  horiz-adv-x="512" />
<glyph unicode="&#x09;" horiz-adv-x="512" />
<glyph unicode="&#xa0;" horiz-adv-x="512" />
<glyph unicode="!" horiz-adv-x="1089" d="M414 0v268h262v-268h-262zM414 899v637h262v-637l-43 -503h-168z" />
<glyph unicode="&#x22;" horiz-adv-x="680" d="M33 960v556h243v-556h-243zM408 960v556h244v-556h-244z" />
<glyph unicode="#" d="M64 475v205h200l25 184h-173v203h191l57 445h172l-57 -445h154l51 445h176l-51 -445h151v-203h-180l-20 -184h152v-205h-177l-59 -475h-172l55 475h-147l-60 -475h-172l56 475h-172zM436 680h144l28 184h-147z" />
<glyph unicode="$" d="M70 406q0 24 2 50h244q0 -137 26 -200q24 -66 106 -80v467q-121 74 -192 135q-74 60 -115 135.5t-49 190.5q-2 20 -2 39q0 145 86 245q96 114 264 128v132h140v-132q172 -22 256 -105q52 -51 67 -109q17 -60 21 -198h-240q0 98 -22 141q-24 43 -90 68v-410 q380 -193 380 -499v-64q-18 -166 -106 -256q-90 -90 -266 -117v-219h-140v215q-370 35 -370 443zM340 1159q0 -123 108 -203v357q-108 -20 -108 -154zM572 176q58 12 92 64q32 52 32 116q0 144 -124 232v-412z" />
<glyph unicode="%" horiz-adv-x="1704" d="M64 1120q0 140 22 222q22 80 92 122q68 44 203 44q177 0 247 -82q68 -82 68 -290q0 -110 -16 -190q-18 -80 -86 -133q-70 -53 -207 -53t-207 45q-72 43 -94 121t-22 194zM260 1108q0 -64 10 -108q10 -54 42 -72q28 -20 75 -20q47 4 72 22t33 68q8 46 8 138q0 140 -23 183 q-22 41 -96 41h-9q-80 0 -94 -50q-14 -52 -18 -182v-20zM428 -33l688 1573h144l-684 -1573h-148zM1020 360q0 210 62 300q60 88 249 88q178 0 250 -82q71 -84 71 -289q0 -111 -18 -191q-18 -82 -88 -133q-70 -53 -206 -53q-198 0 -258 90q-62 90 -62 270zM1212 420 q6 -88 19 -180t113 -92q66 2 88 46q20 45 20 183q0 141 -20 182q-22 41 -96 41q-70 0 -95 -45t-29 -135z" />
<glyph unicode="&#x26;" horiz-adv-x="1368" d="M129 420q4 143 76 272q69 130 219 216q-119 164 -125 339q4 148 94 238q88 88 244 88h8q104 0 176 -41q76 -43 117 -117q39 -76 39 -168q1 -111 -57 -209q-60 -98 -176 -166l196 -340q43 184 43 283h229q0 -125 -38 -275q-39 -152 -99 -237l185 -311h-308l-55 104 q-133 -134 -338 -133q-183 1 -291 109q-136 136 -139 348zM396 465q4 -68 28 -127q22 -62 67 -103t113 -43q96 6 184 88l-248 428q-136 -90 -144 -243zM545 1268q4 -8 4 -25q3 -41 79 -178q116 78 116 178q0 45 -25 84q-27 39 -67 41q-8 2 -17 2q-35 0 -57 -24 q-28 -30 -33 -78z" />
<glyph unicode="'" horiz-adv-x="567" d="M164 983v92q62 11 98 53q35 40 35 132v12h-133v264h248v-264q0 -260 -248 -289z" />
<glyph unicode="(" horiz-adv-x="680" d="M108 568v46q0 176 27 324q29 168 99 332t174 307h164q-92 -167 -144 -397q-51 -232 -51 -617q1 -243 25 -407q22 -164 63 -281q39 -117 111 -283h-168q-176 303 -236 500q-60 198 -64 476z" />
<glyph unicode=")" horiz-adv-x="680" d="M108 -408q70 129 111 271q41 139 61 301q18 162 23 395v80q0 171 -14 311q-18 168 -61.5 317.5t-119.5 309.5h168q156 -251 228 -479q72 -229 72 -535q0 -143 -19 -283q-19 -142 -57 -258q-36 -118 -92 -222q-58 -106 -132 -208h-168z" />
<glyph unicode="*" d="M160 1196l53 156l215 -68v228h164v-228l217 76l55 -160l-221 -64l141 -192l-137 -96l-127 184l-135 -188l-137 96l133 184z" />
<glyph unicode="+" horiz-adv-x="1140" d="M96 440q8 70 8 105h287v-31q-2 -10 -2 -26l-4 -36q1 -252 187 -260q52 6 84 17q34 9 61 59q27 46 27 104q0 132 -140 228q-102 66 -196 131q-96 66 -160 125q-64 58 -106 144q-38 76 -38 168v28q18 358 408 377h33q455 -1 455 -453v-49h-273q0 273 -172 273 q-65 0 -111 -40q-46 -41 -48 -108q8 -108 104 -176q118 -76 240 -156q120 -82 202 -172t94 -200q6 -48 6 -94q0 -188 -98 -292q-124 -129 -316 -139h-36q-216 1 -350 95q-144 100 -146 378zM346 -416l41 88q87 -36 157 -36h21q39 2 63 28q24 28 25 52q-1 30 -25 54 q-24 22 -69 25q-58 -10 -80 -18l-45 39l121 184h107l-84 -129q10 4 34 8q22 3 41 5q80 0 127 -48q45 -48 45 -116q0 -88 -82 -138q-82 -51 -174 -51q-96 -1 -223 53z" />
<glyph unicode="," horiz-adv-x="680" d="M209 0v272h266v-272q1 -123 -65 -203t-201 -94v92q49 -1 98 49q45 45 45 148v8h-143z" />
<glyph unicode="-" horiz-adv-x="680" d="M96 524v236h492v-236h-492z" />
<glyph unicode="." horiz-adv-x="680" d="M209 0v272h270v-272h-270z" />
<glyph unicode="/" horiz-adv-x="567" d="M-24 -192l485 1728h180l-485 -1728h-180z" />
<glyph unicode="0" d="M100 396v732q0 416 412 416q416 0 416 -416v-732q0 -428 -416 -429q-412 1 -412 429zM385 396q1 -104 31 -154q31 -50 96 -50q129 0 129 204v732q0 192 -129 193q-127 -1 -127 -193v-732z" />
<glyph unicode="1" d="M92 1065v207h24q330 0 396 264h213v-1536h-289v1065h-344z" />
<glyph unicode="2" d="M64 0q6 164 22 248t58 162q41 78 114 164q72 86 217 241q80 82 123 158q43 73 43 163q-1 86 -31 134q-33 47 -90 47h-14q-82 0 -119 -43q-41 -50 -43 -190q4 -18 4 -60h-264q-2 38 -2 72q0 260 110 346q125 98 320 102h8q106 0 199 -49q95 -51 153 -141q56 -92 56 -205 q0 -167 -74 -275q-74 -110 -250 -294q-122 -127 -176 -201t-56 -156h536v-223h-844z" />
<glyph unicode="3" d="M53 440q1 32 3 68h272q0 -47 -4 -76q4 -240 168 -240q86 0 120 72q28 62 29 146v30q0 47 -4 72q0 110 -49 160q-42 38 -178 38q-28 0 -62 -2v228h35q135 0 182 45q51 49 51 155q0 80 -34 134q-34 51 -109 51h-4q-123 -6 -129 -176q4 -19 4 -57h-264q-4 35 -4 67 q0 181 94 275q110 110 301 114q197 0 309 -92q50 -35 84 -123q32 -91 33 -193q0 -112 -49 -198q-52 -88 -148 -110q82 -12 131 -66t74 -134q23 -80 23 -180q0 -112 -29 -208q-30 -98 -84 -156q-51 -51 -145 -84q-90 -33 -182 -33h-13q-217 4 -325 123q-96 104 -97 350z" />
<glyph unicode="4" d="M47 312v224l465 976h320v-976h132v-224h-132v-312h-287v312h-498zM260 536h285v628z" />
<glyph unicode="5" d="M76 434v50h268v-44q0 -125 31 -180q37 -64 117 -64h10q84 0 116 64q34 66 34 256v18q0 158 -34 218q-37 64 -114 67h-12q-119 -1 -148 -111h-252l37 804h739v-224h-516l-20 -328q78 84 221 84q62 0 135 -16q234 -70 248 -424q2 -53 2 -100q0 -182 -37 -291 q-49 -141 -147 -193q-100 -54 -266 -53q-232 1 -326 129q-86 114 -86 338z" />
<glyph unicode="6" d="M88 461v522q0 325 115 445q109 116 325 116h17q160 0 266 -86q101 -82 101 -242v-20h-269q-1 121 -107 121q-104 0 -130 -74q-26 -76 -38 -219q4 -28 4 -92q64 104 228 104q184 0 262 -145q78 -147 78 -351v-67q-2 -27 -4 -61q-16 -225 -115 -334q-100 -111 -309 -111 q-200 0 -312 127q-112 125 -112 367zM372 381q0 -66 31 -127.5t105 -61.5q144 0 144 168v281q0 80 -39 125t-97 45q-56 0 -100 -49q-44 -50 -44 -134v-247z" />
<glyph unicode="7" d="M64 1288v224h868v-208q-112 -174 -232 -542q-123 -369 -147 -762h-297q14 205 84 459q68 254 162 481q92 226 178 348h-616z" />
<glyph unicode="8" d="M84 452q0 142 49 240q47 96 166 140q-70 35 -106.5 77.5t-50.5 102.5q-16 58 -21 147v21q1 92 37 172q40 88 128 139q86 51 230 53h8q198 0 287 -92q88 -94 92 -284v-15q-1 -144 -39 -209q-42 -69 -156 -116q127 -26 181 -120q51 -92 55 -284q0 -128 -41 -232 q-43 -106 -137 -164q-90 -56 -238 -56h-12q-156 4 -248 46q-92 41 -137 146q-47 104 -47 288zM372 381q0 -92 34 -135q33 -46 106 -50h8q70 0 102 44q34 43 34 137v127q0 217 -136 217h-8q-74 0 -107 -41t-33 -176v-123zM385 1124q0 -196 131 -196q125 0 125 188v12 q0 192 -129 193q-127 -7 -127 -197z" />
<glyph unicode="9" d="M84 954v37q6 189 51 313q43 123 129 181q84 55 228 59q228 0 338 -121t110 -455v-400q0 -215 -41 -345q-43 -131 -135 -193q-94 -61 -244 -63q-208 1 -309 93q-95 84 -95 235v21h269v-13q0 -43 33 -73q36 -38 90 -42q104 10 129 86q23 74 23 214v100q-64 -104 -228 -113 q-102 6 -152 33q-196 94 -196 446zM372 893q0 -89 44 -141q41 -52 96 -56q60 4 100 56q40 50 40 141v243q0 90 -40 138q-41 47 -100 47q-56 0 -96 -47q-44 -50 -44 -138v-243z" />
<glyph unicode=":" horiz-adv-x="567" d="M144 -4v272h272v-272h-272zM144 864v272h272v-272h-272z" />
<glyph unicode=";" horiz-adv-x="567" d="M148 -209q66 9 106 61q39 47 39 140v8h-141v272h268v-272q0 -125 -72 -203q-72 -80 -200 -94v88zM152 868v272h268v-272h-268z" />
<glyph unicode="&#x3c;" d="M88 412v200l852 468v-228l-608 -340l608 -332v-227z" />
<glyph unicode="=" horiz-adv-x="907" d="M58 330q0 25 2 51h268q-4 -33 -4 -61q0 -154 120 -160q114 14 115 112q0 72 -43 109q-12 10 -129 88q-119 75 -197 147q-80 72 -102 148q-16 47 -24 135q2 152 118 219q114 66 274 66q380 0 380 -379h-273v25q-1 152 -119 151q-110 0 -116 -92q8 -60 40 -84 q45 -41 193 -137q146 -96 209 -168q62 -74 62 -193q0 -51 -13 -111q-49 -230 -391 -229q-168 1 -276 105q-94 90 -94 258zM203 -416l41 88q87 -36 157 -36h21q39 2 63 28q24 28 25 52q-1 30 -25 54q-24 22 -69 25q-58 -10 -80 -18l-45 39l121 184h107l-84 -129q10 4 34 8 q22 3 41 5q80 0 127 -48q45 -48 45 -116q0 -88 -82 -138q-82 -51 -174 -51q-96 -1 -223 53z" />
<glyph unicode="&#x3e;" d="M88 -47v227l608 332l-608 340v228l852 -464v-204z" />
<glyph unicode="?" horiz-adv-x="1433" d="M312 1184q0 394 417 393q113 -4 199 -51q86 -48 129 -125q47 -87 47 -221q0 -136 -56 -228q-66 -104 -151 -194q-89 -92 -117 -150q-26 -56 -26 -180v-16h-246v34q0 121 24 201q26 93 101 181q99 120 147 200q46 80 46 180q0 156 -122 156q-82 -2 -110 -51 q-24 -43 -24 -149v-32h-256q-2 26 -2 52zM504 0v264h260v-264h-260z" />
<glyph unicode="@" horiz-adv-x="1704" d="M76 780v16q2 190 102 372q100 180 283 292q181 111 415 113h8q236 -1 404 -99q172 -102 258 -254t86 -300q0 -142 -68 -279q-68 -139 -186 -229q-121 -90 -266 -105q-102 1 -108 109q4 12 4 32q-92 -122 -268 -128q-134 0 -232 98t-100 266q4 42 8 66q2 24 4 55 q36 186 155 282.5t261 96.5q186 0 268 -127l20 111h203l-107 -605q-4 -17 -4 -31q0 -36 27 -40q47 4 113 78q66 72 88 151q24 90 24 178q0 151 -69 269q-73 118 -193 184q-122 64 -278 68h-35q-248 0 -424 -136q-187 -148 -225 -412q-8 -60 -8 -114q0 -130 44 -238 q64 -156 187 -252t268 -133q96 -17 164 -23q249 6 441 191h196q-256 -340 -635 -340h-12q-234 2 -420 117q-188 114 -293 305q-100 181 -100 395zM633 708q4 -88 49 -145q43 -59 123 -59q73 2 123 45q50 41 78 109q26 66 26 138q0 86 -38 142q-40 53 -110 53 q-112 1 -180 -83q-68 -86 -71 -200z" />
<glyph unicode="A" horiz-adv-x="1140" d="M20 0l365 1540h391l344 -1540h-309l-71 387h-336l-80 -387h-304zM444 616h248l-92 516l-24 236h-4l-23 -236z" />
<glyph unicode="B" horiz-adv-x="1140" d="M131 0v1540h497q362 0 372 -364v-12q0 -148 -46 -224q-50 -80 -145 -116q225 -33 231 -363q0 -123 -39 -229t-123 -168q-86 -64 -214 -64h-533zM420 223h156q160 0 168 238v16q0 215 -176 215h-148v-469zM420 916h100q102 0 147 43t45 165q-2 125 -40 158q-40 31 -152 31 h-100v-397z" />
<glyph unicode="C" horiz-adv-x="1140" d="M112 608v260q0 264 46 414q43 150 145 219q102 68 285 72h20q236 0 332 -129q100 -136 100 -383h-284q-6 271 -144 283q-12 2 -22 2q-182 0 -182 -285v-529q0 -174 46 -254q45 -82 138 -82q100 0 135 82q33 82 33 271h288q-6 -157 -24 -269q-20 -112 -114 -214 q-96 -103 -294 -103h-12h-6q-176 0 -280 61q-110 64 -158 206q-48 140 -48 378z" />
<glyph unicode="D" horiz-adv-x="1251" d="M148 0v1540h552q238 0 342 -178q88 -154 88 -484q0 -60 -2 -122q-8 -184 -20 -302q-14 -116 -51 -220q-39 -106 -123 -170q-86 -64 -230 -64h-556zM436 223h152q114 0 168 66q54 64 68 178q8 84 10 221q0 46 -2 100q-4 288 -42 408q-39 117 -153 117h-201v-1090z" />
<glyph unicode="E" d="M131 0v1540h809v-227h-520v-389h477v-224h-477v-477h520v-223h-809z" />
<glyph unicode="F" d="M152 0v1536h812v-223h-528v-393h496v-224h-496v-696h-284z" />
<glyph unicode="G" horiz-adv-x="1251" d="M112 635v25v164q4 260 31 407t133 247q104 98 328 99q324 0 414 -149.5t90 -370.5h-289q0 158 -43 221q-46 62 -160 62h-8q-78 0 -122 -42q-47 -42 -62 -120q-16 -80 -16 -195v-403q0 -123 14 -205q12 -82 57 -129q45 -50 137 -50q212 0 212 384v20h-200v224h476v-824 h-211v180q-79 -221 -321 -221q-31 0 -97 8q-137 27 -213 95q-78 68 -114 214q-36 137 -36 359z" />
<glyph unicode="H" horiz-adv-x="1251" d="M140 0v1540h288v-612h400v612h288v-1540h-288v704h-400v-704h-288z" />
<glyph unicode="I" horiz-adv-x="567" d="M140 0v1540h288v-1540h-288z" />
<glyph unicode="J" horiz-adv-x="907" d="M12 488h291v-148q1 -86 23 -114q20 -30 74 -30h4q64 0 80 42q16 43 16 149v1153h288v-1204q0 -196 -94 -285q-96 -88 -309 -88q-142 0 -221.5 49.5t-107.5 124.5q-32 77 -36 175z" />
<glyph unicode="K" horiz-adv-x="1140" d="M140 0v1540h284v-684h8q56 134 108 238q54 102 138 258q84 154 102 188h324l-379 -664l395 -876h-324l-268 608l-104 -168v-440h-284z" />
<glyph unicode="L" d="M140 0v1540h284v-1317h536v-223h-820z" />
<glyph unicode="M" horiz-adv-x="1591" d="M135 0v1540h461l172 -809l37 -270l27 270l172 809h456v-1540h-288v872l24 529h-4l-308 -1401h-172l-308 1401h-4l24 -577v-824h-289z" />
<glyph unicode="N" horiz-adv-x="1251" d="M140 0v1540h300l291 -748l141 -448q-28 368 -38 528q-10 158 -10 324v344h288v-1540h-297l-307 756l-127 412q17 -224 31 -435q12 -213 12 -342v-391h-284z" />
<glyph unicode="O" horiz-adv-x="1251" d="M121 860q2 38 6 102q3 64 17 164q12 98 36 174t52 120q92 112 184 142q90 30 217 30q223 0 333 -109q110 -111 140 -261q26 -150 26 -346v-248q-4 -224 -32 -356q-32 -133 -140 -223t-327 -90q-332 0 -416 166q-84 164 -92 475v33v195v8t-4 24zM420 492q0 -296 213 -296 q203 0 203 296v532q0 102 -40 211q-41 107 -163 109h-5q-102 0 -153 -74q-55 -78 -55 -222v-556z" />
<glyph unicode="P" horiz-adv-x="1140" d="M140 0v1540h585q183 0 273 -125q86 -121 86 -291v-16q0 -465 -447 -465h-213v-643h-284zM424 868h172q192 0 192 264q0 88 -32 136q-33 45 -139 45h-5h-188v-445z" />
<glyph unicode="Q" horiz-adv-x="1251" d="M121 668q4 60 4 164q6 208 12 296q5 86 49 199q42 113 142 183q99 67 267 67h5q226 0 338 -76q110 -76 147 -219.5t47 -397.5v-176q0 -428 -84 -564l156 -152l-147 -140l-158 160q-86 -49 -259 -49h-7q-266 0 -377 117q-76 80 -102 229q-28 151 -33 359zM420 484 q0 -288 208 -292q26 4 76 13l-61 51l158 135l18 -23q13 47 13 148v121v428q0 144 -58 213q-56 66 -146 66h-12q-88 -4 -141 -78q-55 -74 -55 -205v-577z" />
<glyph unicode="R" horiz-adv-x="1251" d="M135 0v1540h557q410 0 424 -356v-29q0 -145 -57 -241q-65 -104 -187 -118q88 -10 138 -48t67 -88q17 -51 21 -103q2 -53 2 -121q4 -158 18 -282q14 -126 54 -126v-28h-332q-8 58 -12 164t-17 172v104q0 110 -43 166q-44 54 -192 54h-152v-660h-289zM424 889h200 q94 0 144 59q47 60 47 152q0 112 -39 164q-40 49 -139 49h-4h-209v-424z" />
<glyph unicode="S" horiz-adv-x="1140" d="M96 440q8 70 8 105h287v-31q-2 -10 -2 -26l-4 -36q1 -252 187 -260q52 6 84 17q34 9 61 59q27 46 27 104q0 132 -140 228q-102 66 -196 131q-96 66 -160 125q-64 58 -106 144q-38 76 -38 168v28q18 358 408 377h33q455 -1 455 -453v-49h-273q0 273 -172 273 q-65 0 -111 -40q-46 -41 -48 -108q8 -108 104 -176q118 -76 240 -156q120 -82 202 -172t94 -200q6 -48 6 -94q0 -188 -98 -292q-124 -129 -316 -139h-36q-216 1 -350 95q-144 100 -146 378z" />
<glyph unicode="T" d="M37 1313v227h954v-227h-331v-1313h-288v1313h-335z" />
<glyph unicode="U" horiz-adv-x="1251" d="M140 436v1104h284v-1084q0 -156 58 -208q57 -56 151 -56q57 0 100 21q41 20 68 80q27 57 27 168v1079h288v-1104q0 -248 -112 -362q-114 -114 -376 -115q-248 1 -368 109q-120 106 -120 368z" />
<glyph unicode="V" horiz-adv-x="1140" d="M43 1540h305l207 -1124l25 -268l28 268l180 1124h312l-332 -1540h-383z" />
<glyph unicode="W" horiz-adv-x="1704" d="M47 1540h301l156 -1048l24 -316l27 316l176 1048h246l187 -1048l28 -316l28 316l144 1048h297l-285 -1540h-344l-135 744l-45 368l-41 -368l-119 -744h-348z" />
<glyph unicode="X" horiz-adv-x="1140" d="M20 0l380 776l-363 760h323l176 -396q26 -78 36 -144h4q6 72 36 144l168 396h324l-369 -756l381 -780h-328l-176 404q-33 94 -49 164q-14 -72 -47 -164l-180 -404h-316z" />
<glyph unicode="Y" horiz-adv-x="1140" d="M24 1540h312l180 -448q32 -78 52 -195h4q16 95 56 195l177 448h311l-404 -888v-652h-288v652z" />
<glyph unicode="Z" d="M68 0v228l560 1085h-528v223h840v-232q-139 -270 -301 -585q-164 -316 -258 -496h579v-223h-892z" />
<glyph unicode="[" d="M88 289v29q0 121 47 188q51 76 149 135q54 33 158 76q102 41 134 67q40 34 40 92q0 106 -132 107q-82 -5 -99 -31q-37 -45 -37 -141h-252v25q0 182 92 264q96 84 300 88q206 0 300 -76q92 -76 92 -236v-696q0 -108 23 -180h-256q-11 24 -19 92q4 16 5 37 q-94 -157 -248 -157q-58 0 -129 20q-168 55 -168 297zM203 1495v209q56 -58 136.5 -93.5t148.5 -35.5q67 0 141.5 31t128.5 98v-209q-46 -70 -118 -107.5t-152 -37.5q-81 0 -156.5 37.5t-128.5 107.5zM344 320q12 -131 131 -148q45 6 57 12q32 20 50 42q14 20 24 86 q6 52 6 128v39v129q-60 -38 -122 -78q-64 -44 -101 -92q-39 -50 -45 -118z" />
<glyph unicode="\" horiz-adv-x="567" d="M28 964v191h107v321h269v-321h112v-191h-112v-680q0 -57 18 -67q18 -12 94 -12v-209q-16 0 -63 -4t-81 -4q-238 0 -237 196v780h-107zM80 -416l41 88q87 -36 157 -36h21q39 2 63 28q24 28 25 52q-1 30 -25 54q-24 22 -69 25q-58 -10 -80 -18l-45 39l121 184h107l-84 -129 q10 4 34 8q22 3 41 5q80 0 127 -48q45 -48 45 -116q0 -88 -82 -138q-82 -51 -174 -51q-96 -1 -223 53z" />
<glyph unicode="]" horiz-adv-x="567" d="M-100 1280l231 299h260l237 -299h-237l-127 168l-133 -168h-231zM152 0v1155h264v-1155h-264z" />
<glyph unicode="^" d="M20 764l367 772h250l367 -772l-212 -96l-280 571l-280 -571z" />
<glyph unicode="_" d="M0 -125h1024v-119h-1024v119z" />
<glyph unicode="`" horiz-adv-x="680" d="M4 1587h316l192 -299h-209z" />
<glyph unicode="a" d="M88 289v29q0 121 47 188q51 76 149 135q54 33 158 76q102 41 134 67q40 34 40 92q0 106 -132 107q-82 -5 -99 -31q-37 -45 -37 -141h-252v25q0 182 92 264q96 84 300 88q206 0 300 -76q92 -76 92 -236v-696q0 -108 23 -180h-256q-11 24 -19 92q4 16 5 37 q-94 -157 -248 -157q-58 0 -129 20q-168 55 -168 297zM344 320q12 -131 131 -148q45 6 57 12q32 20 50 42q14 20 24 86q6 52 6 128v39v129q-60 -38 -122 -78q-64 -44 -101 -92q-39 -50 -45 -118z" />
<glyph unicode="b" d="M131 0v1536h265v-492q72 140 220 140q51 0 76 -4q115 -18 166 -115q50 -97 50 -309v-369q0 -420 -267 -420q-170 0 -256 158v-125h-254zM396 381q0 -97 36 -153q35 -56 84 -60q56 4 92 60q34 53 35 153v424q-1 82 -25 131q-22 45 -92 45h-6q-55 0 -90 -47 q-34 -49 -34 -129v-424z" />
<glyph unicode="c" horiz-adv-x="907" d="M100 340v416q0 274 103 352q102 76 258 80q85 0 163 -27q78 -25 124 -81q43 -48 61 -103q19 -57 19 -221h-269v137q-1 41 -27 65q-28 24 -67 25h-1q-96 0 -96 -143v-500q0 -164 93 -164q98 0 98 164v112h269v-112q0 -192 -93 -282q-92 -90 -274 -91q-173 1 -267 99 t-94 274z" />
<glyph unicode="d" d="M108 387v397q0 360 220 400q18 2 32 4h36q164 0 237 -156l-9 56v452h265v-1540h-265v131q-26 -77 -92 -119q-65 -45 -144 -45h-3q-43 1 -86 13q-191 62 -191 407zM377 387q1 -99 35 -157t84 -58q128 0 128 215v393q0 92 -32 148q-33 55 -94 55h-2q-72 0 -94 -51 q-24 -52 -25 -152v-393z" />
<glyph unicode="e" d="M108 444v344q0 400 408 400q174 -2 258 -66t108 -164q26 -102 26 -274v-160h-531v-176q0 -170 127 -176q12 4 32 4q100 12 101 188v27h266q2 -21 2 -43q0 -165 -79 -262q-88 -112 -273 -114h-29q-92 0 -178 22q-98 26 -168 135q-70 105 -70 315zM377 727h264v117 q0 139 -133 139q-131 0 -131 -139v-117z" />
<glyph unicode="f" horiz-adv-x="567" d="M43 960v195h101q0 58 -4 84q4 95 20 155q14 58 63 99q63 43 221 43h84v-213q-31 13 -63 13q-53 0 -53 -44v-137h116v-195h-116v-960h-268v960h-101z" />
<glyph unicode="g" d="M108 385v332q0 267 64 363q62 94 188 104h44q164 0 216 -156v127h269v-1114q0 -139 -35 -229q-37 -92 -127 -144q-99 -55 -271 -55h-4q-136 0 -229 61q-96 62 -102 195h266q1 -65 105 -65h24q117 8 117 168v157q-31 -79 -99 -117q-68 -40 -149 -40t-149 40 q-128 80 -128 373zM377 381q1 -209 119 -209q124 12 124 205v391q0 108 -32 162q-34 51 -92 51h-10q-64 0 -84 -47q-24 -53 -25 -207v-346z" />
<glyph unicode="h" d="M125 0v1540h266v-504h5q36 72 102 113q66 39 139 39q74 0 135 -35q62 -37 96 -96q34 -61 35 -137v-920h-266v788q-1 110 -29 156q-28 37 -84 37h-16q-117 -9 -117 -189v-792h-266z" />
<glyph unicode="i" horiz-adv-x="567" d="M152 0v1155h264v-1155h-264zM152 1296v244h264v-244h-264z" />
<glyph unicode="j" horiz-adv-x="567" d="M64 -184h28q38 0 56 14q16 12 16 58v1267h264v-1276q0 -168 -43 -221.5t-153 -53.5q-36 0 -168 9v203zM164 1296v240h264v-240h-264z" />
<glyph unicode="k" horiz-adv-x="907" d="M100 0v1536h264v-717v-69q-2 -26 -4 -54h4l252 459h296l-296 -463l283 -692h-295l-168 471l-72 -119v-352h-264z" />
<glyph unicode="l" horiz-adv-x="567" d="M152 0v1536h268v-1536h-268z" />
<glyph unicode="m" horiz-adv-x="1591" d="M135 0v1155h265v-119h4q30 74 102 111t154 37q92 0 166 -39q74 -41 82 -109q32 74 108 111q74 37 160 37q114 0 200 -62q84 -62 84 -174v-948h-268v809q0 172 -119 172h-12q-129 -7 -129 -193v-788h-268v824q0 159 -126 159h-2h-8q-72 -2 -100 -49q-28 -50 -28 -142v-792 h-265z" />
<glyph unicode="n" d="M125 0v1155h266v-131q23 76 95 119q72 41 151 41q111 0 187 -66q76 -68 75 -190v-928h-262v788q0 88 -24.5 129t-88.5 43h-12q-47 0 -82 -40q-39 -48 -39 -140v-780h-266z" />
<glyph unicode="o" d="M108 576q0 230 29 358t117 192q88 62 262 62q170 0 256 -62q84 -64 112 -184q28 -123 28 -342v-200q0 -205 -82 -320q-84 -117 -302 -117h-6q-179 0 -266 57q-88 56 -116 185q-32 129 -32 371zM377 340q0 -162 131 -168q78 0 108 39q30 37 31 129v408q0 137 -24.5 186 t-106.5 49t-110 -51q-28 -54 -29 -172v-420z" />
<glyph unicode="p" d="M121 -387v1542h264v-127q24 72 88 117q63 43 143 43q154 0 218 -127q63 -127 63 -296v-5v-388q-1 -326 -185 -388q-44 -12 -96 -12q-166 0 -244 157v-516h-251zM385 368q1 -178 111 -192q8 -2 16 -2q51 0 84 47q37 52 37 156v419q-1 96 -25 142q-27 45 -100 45 q-54 0 -88 -53q-35 -56 -35 -146v-416z" />
<glyph unicode="q" d="M104 420v328q0 348 144 411q68 29 137 29q179 0 231 -164v131h264v-1540h-264v520q-66 -163 -239 -163q-100 0 -154 44q-68 57 -92 152q-27 94 -27 252zM372 400q0 -224 116 -224h4q58 0 90 52q34 52 34 136v424q0 94 -34 146q-34 47 -82 47h-8q-66 0 -92 -41 q-28 -43 -28 -180v-360z" />
<glyph unicode="r" horiz-adv-x="680" d="M125 0v1155h256v-215q87 236 271 236v-312h-52q-90 0 -150 -38q-60 -40 -59 -166v-660h-266z" />
<glyph unicode="s" horiz-adv-x="907" d="M58 330q0 25 2 51h268q-4 -33 -4 -61q0 -154 120 -160q114 14 115 112q0 72 -43 109q-12 10 -129 88q-119 75 -197 147q-80 72 -102 148q-16 47 -24 135q2 152 118 219q114 66 274 66q380 0 380 -379h-273v25q-1 151 -117 151h-2q-110 0 -116 -92q8 -60 40 -84 q45 -41 193 -137q146 -96 209 -168q62 -74 62 -193q0 -51 -13 -111q-49 -229 -388 -229h-3q-168 1 -276 105q-94 90 -94 258z" />
<glyph unicode="t" horiz-adv-x="567" d="M28 964v191h107v321h269v-321h112v-191h-112v-680q0 -57 18 -67q18 -12 94 -12v-209q-16 0 -63 -4t-81 -4q-238 0 -237 196v780h-107z" />
<glyph unicode="u" d="M116 293v862h269v-823q1 -156 103 -156h12q116 0 116 201v778h268v-1155h-256v184q-48 -217 -258 -217h-2q-80 0 -145 33q-107 56 -107 293z" />
<glyph unicode="v" horiz-adv-x="907" d="M20 1155h287l125 -694l29 -293l27 293l120 694h285l-269 -1155h-331z" />
<glyph unicode="w" horiz-adv-x="1368" d="M20 1155h283l93 -707l24 -252l32 252l107 707h225l128 -707l24 -252l28 252l93 707h266l-235 -1155h-292l-92 508l-32 252l-29 -252l-84 -508h-299z" />
<glyph unicode="x" horiz-adv-x="907" d="M16 0l304 592l-287 563h315l92 -231l25 -84l23 84l100 231h301l-289 -563l293 -592h-297l-112 252l-23 104l-29 -104l-112 -252h-304z" />
<glyph unicode="y" horiz-adv-x="907" d="M12 1155h281l123 -651l32 -268l36 268l124 651h272l-308 -1280q-33 -156 -97 -213q-67 -58 -191 -58q-80 0 -128 5v207h53h31q45 0 61 10q15 8 15 39q0 19 -19 111z" />
<glyph unicode="z" horiz-adv-x="796" d="M47 0v205l405 747h-396v203h692v-195l-420 -755h424v-205h-705z" />
<glyph unicode="{" horiz-adv-x="1140" d="M20 0l365 1540h391l344 -1540h-309l-71 387h-336l-80 -387h-304zM284 1822v210q57 -58 137 -94q81 -36 149 -36q66 0 142 32t128 98v-210q-46 -70 -118 -107t-152 -37q-81 0 -157.5 37t-128.5 107zM444 616h248l-92 516l-24 236h-4l-23 -236z" />
<glyph unicode="|" d="M37 1313v227h954v-227h-331v-1313h-288v1313h-335zM285 -416l41 88q87 -36 157 -36h21q39 2 63 28q24 28 25 52q-1 30 -25 54q-24 22 -69 25q-58 -10 -80 -18l-45 39l121 184h107l-84 -129q10 4 34 8q22 3 41 5q80 0 127 -48q45 -48 45 -116q0 -88 -82 -138 q-82 -51 -174 -51q-96 -1 -223 53z" />
<glyph unicode="}" horiz-adv-x="567" d="M-76 1661l232 299h260l236 -299h-236l-127 168l-133 -168h-232zM140 0v1540h288v-1540h-288z" />
<glyph unicode="~" d="M51 465q69 135 131 195q60 58 142 57q52 -1 96 -17q43 -16 102 -46q58 -33 102 -50q42 -18 84 -24q38 2 78 40q37 39 70 115l117 -147q-60 -122 -121 -178q-62 -57 -140 -62q-88 6 -228 72q-114 59 -160 59q-37 -1 -64 -25q-28 -26 -49 -67q-23 -41 -43 -75z" />
<glyph unicode="&#xa1;" horiz-adv-x="680" d="M209 252l43 540h180l43 -540v-600h-266v600zM209 916v272h266v-272h-266z" />
<glyph unicode="&#xa2;" d="M148 368v420q0 190 92 296q90 104 229 104q33 0 86 -8l37 196h143l-43 -227q74 -31 117 -82q41 -51 55 -107q12 -56 14 -108q0 -56 2 -104h-272v196l-133 -752q18 -4 33 -4q100 0 100 189v71h268v-46q0 -122 -26 -212q-35 -108 -115 -168q-81 -60 -207 -59q-54 0 -80 4 l-40 -215h-140l44 256q-164 102 -164 360zM396 260l120 704q-60 0 -90 -34.5t-30 -120.5v-549z" />
<glyph unicode="&#xa3;" d="M72 164q90 50 151 152t61 220q0 78 -32 156h-176v119h129q-35 49 -63 143q-32 94 -34 195q4 165 97 283q92 119 303 141q26 2 53 2q157 0 275 -82q138 -98 137 -334v-67h-261v20q0 74 -12 127q-16 60 -49 82.5t-92 26.5q-174 0 -182 -199q18 -121 94 -338h301v-119h-256 q20 -68 20 -120q0 -117 -71 -222q-74 -104 -176 -170l8 -4q112 64 211 64q46 0 148 -19q100 -19 112 -21q82 6 172 68l56 -225q-106 -71 -265 -71q-53 0 -174 30q-121 31 -193 31q-98 0 -220 -66z" />
<glyph unicode="&#xa4;" d="M16 276l84 92q-68 106 -76 256q2 82 27 158q22 76 49 111l-84 90l156 162l84 -88q112 75 248 75q139 0 264 -75l88 88l148 -164l-84 -88q72 -107 71 -269q1 -158 -75 -256l88 -92l-148 -160l-88 89q-121 -74 -260 -80q-142 8 -252 80l-88 -89zM272 631q0 -99 64 -177 q66 -84 176 -86q78 0 133 44q54 41 82 100q25 48 25 100v16q-4 106 -68 185q-64 76 -172 76q-102 0 -168 -74q-68 -74 -72 -172v-12z" />
<glyph unicode="&#xa5;" d="M-37 1536h321l187 -475l45 -168l43 168l193 475h313l-409 -884v-120h220v-104h-220v-125h220v-103h-220v-200h-284v200h-232v103h232v125h-232v104h232v115z" />
<glyph unicode="&#xa6;" horiz-adv-x="340" d="M192 0v1532h132v-1532h-132z" />
<glyph unicode="&#xa7;" d="M72 672q4 68 22 124q18 58 60 107q38 48 98 78q-94 86 -100 258q6 160 118 248q112 86 270 86q154 0 256 -84q102 -85 103 -277h-252q-1 80 -33 121q-36 39 -86 39q-54 0 -92 -39q-38 -40 -40 -94q8 -66 44 -94q59 -54 143.5 -119.5t156.5 -120.5q70 -55 112 -96 q96 -92 96 -246q0 -90 -40 -170q-43 -82 -132 -137q43 -30 76 -106q32 -78 32 -166q0 -160 -116 -258q-118 -98 -280 -98q-156 0 -267 90q-113 90 -113 306h256q0 -184 136 -184q54 0 96 37q41 37 41 95q1 64 -61 124q-24 24 -178 144q-154 116 -246 208q-74 74 -80 224z M307 717q5 -71 57 -109l269 -221q71 43 71 129q0 76 -48 112l-265 216q-78 -27 -84 -127z" />
<glyph unicode="&#xa8;" horiz-adv-x="680" d="M12 1321v235h260v-235h-260zM408 1321v235h264v-235h-264z" />
<glyph unicode="&#xa9;" horiz-adv-x="1700" d="M47 796q1 200 107 380q104 178 290 288q186 108 404 109q238 0 422 -110.5t284 -288.5q98 -180 103 -378v-16q-1 -196 -95 -382q-98 -194 -284 -316q-188 -123 -430 -123q-194 1 -379 99q-186 98 -303 288q-119 190 -119 450zM196 796q0 -174 78 -329q78 -158 226 -250 q148 -95 348 -101h8q172 0 322 89q154 89 242 241q88 150 88 326q0 168 -93 320q-93 150 -247 241q-156 91 -320 91q-172 0 -324 -88q-152 -90 -240 -238t-88 -302zM440 752v28q0 213 123 334q129 129 313 129q90 -1 176 -35q86 -37 142 -106q54 -70 66 -166h-180 q-8 76 -66 116t-134 40q-102 0 -176 -70q-76 -70 -84 -207q-2 -17 -2 -31q0 -94 46 -176q52 -96 124 -124q30 -14 96 -23q174 7 196 167h184q-16 -146 -126 -228q-108 -84 -258 -88q-170 4 -300 120q-132 116 -140 320z" />
<glyph unicode="&#xaa;" horiz-adv-x="616" d="M41 596v129h535v-129h-535zM43 1044q8 90 41 132q30 39 73 61.5t113 50.5q70 30 96 48q24 16 25 52q0 72 -84 72q-92 0 -92 -108h-168q-1 124 63 172q62 48 174 53h34q102 0 168 -35q74 -41 73 -141v-365q0 -16 -4 -36q15 -116 21 -136h-164q-4 8 -6 16q-2 6 -4 17 q-4 11 -6 19q4 8 4 16h-4q-52 -84 -164 -92q-80 6 -124 40q-58 34 -65 164zM215 1052q8 -88 80 -88h8q84 4 84 116v149q-16 -10 -67 -41q-52 -32 -74 -60q-25 -32 -31 -76z" />
<glyph unicode="&#xab;" d="M152 420v208l323 288v-228l-195 -164l195 -164v-231zM532 420v208l328 288v-228l-196 -164l196 -164v-231z" />
<glyph unicode="&#xac;" d="M51 596v223h922v-604h-225v381h-697z" />
<glyph unicode="&#xad;" horiz-adv-x="680" d="M96 524v236h492v-236h-492z" />
<glyph unicode="&#xae;" horiz-adv-x="1700" d="M43 760q1 214 107 406q106 190 294 300.5t424 110.5q158 1 302 -61q144 -64 252 -170q106 -108 172 -264q64 -156 63 -322q-1 -190 -101 -375q-102 -186 -282 -303q-182 -119 -406 -119q-174 -1 -326 63q-154 64 -264 177q-112 112 -173.5 257.5t-61.5 299.5zM192 764h4 v-4q6 -246 186 -445t486 -199q139 0 260.5 58t202.5 152q80 92 127 208q45 114 45 226v8q1 158 -79 309q-84 154 -228 250q-146 95 -328 97h-4q-295 0 -479 -202q-189 -204 -193 -458zM520 332v868h476q284 0 284 -276v-12q-4 -92 -62 -152t-178 -60l212 -368h-200l-192 368 h-168v-368h-172zM692 828h276q140 0 140 124q0 118 -152 119h-264v-243z" />
<glyph unicode="&#xb1;" d="M51 -33v229h922v-229h-922zM51 553v223h349v276h224v-276h349v-223h-349v-277h-224v277h-349z" />
<glyph unicode="&#xb2;" horiz-adv-x="616" d="M28 616q4 116 23 180q18 64 74 132q53 66 172 180q56 51 82 88q25 37 25 92q0 117 -80 117h-17q-49 -1 -69 -23q-26 -26 -29 -110q4 -12 4 -39h-172q-2 28 -2 53q-1 146 71 197q84 57 210 57q110 0 184 -64q72 -66 72 -172q0 -104 -47 -172t-157 -172 q-141 -132 -149 -212h349v-132h-544z" />
<glyph unicode="&#xb3;" horiz-adv-x="616" d="M22 868q0 22 2 48h176q-2 -20 -2 -38q0 -80 25 -112q27 -39 84 -39q97 0 97 125v20v48q0 62 -36 92q-30 24 -116 26q-16 0 -37 -2v140h35q78 -2 104 24q32 29 33 88q0 117 -86 117h-8q-45 -1 -61 -21q-18 -20 -23 -80q4 -12 4 -36h-172q-2 20 -2 38q-1 106 59 166 q70 68 195 68q121 0 199 -62q76 -64 76 -182q0 -68 -32 -120q-32 -55 -100 -68q80 -6 117 -68q35 -62 35 -151q0 -69 -20 -133q-22 -66 -56 -96q-72 -64 -194 -64h-21q-142 0 -213 74q-62 62 -62 198z" />
<glyph unicode="&#xb4;" horiz-adv-x="680" d="M168 1288l196 299h316l-303 -299h-209z" />
<glyph unicode="&#xb5;" d="M121 289v866h264v-823q1 -156 103 -156h12q116 0 116 192v787h268v-1155h-256v184q-48 -184 -180 -184q-35 0 -63 12v-399h-264v676z" />
<glyph unicode="&#xb6;" horiz-adv-x="1128" d="M47 1188q1 154 109 252q108 96 296 96h628v-240h-89v-1532h-239v1532h-140v-1532h-244v1055q-150 7 -235 105q-86 98 -86 264z" />
<glyph unicode="&#xb7;" horiz-adv-x="860" d="M43 764q1 158 117 272q114 112 272 113q158 0 270.5 -112.5t112.5 -272.5q0 -158 -112.5 -270.5t-270.5 -112.5q-158 1 -272 115q-116 113 -117 268z" />
<glyph unicode="&#xb8;" horiz-adv-x="680" d="M80 -416l41 88q87 -36 157 -36h21q39 2 63 28q24 28 25 52q-1 30 -25 54q-24 22 -69 25q-58 -10 -80 -18l-45 39l121 184h107l-84 -129q10 4 34 8q22 3 41 5q80 0 127 -48q45 -48 45 -116q0 -88 -82 -138q-82 -51 -174 -51q-96 -1 -223 53z" />
<glyph unicode="&#xb9;" horiz-adv-x="616" d="M104 1252v124q228 4 273 164h135v-924h-184v636h-224z" />
<glyph unicode="&#xba;" horiz-adv-x="616" d="M43 596v129h525v-129h-525zM43 1092v204q0 178 76 228t188 49q113 0 187 -45q74 -46 74 -232v-200q0 -170 -74 -212q-74 -40 -187 -40q-108 0 -186 45t-78 203zM215 1052q0 -80 88 -88q93 8 93 84v332q0 34 -28 54q-26 18 -65 18q-33 0 -61 -18q-26 -20 -27 -54v-328z " />
<glyph unicode="&#xbb;" d="M164 129v231l200 172l-200 156v228l328 -288v-208zM553 129v227l195 176l-195 156v228l319 -288v-208z" />
<glyph unicode="&#xbc;" horiz-adv-x="1536" d="M41 1256v120q151 2 203 52q52 47 72 112h136v-928h-184v644h-227zM268 0l872 1512h152l-872 -1512h-152zM897 184v136l303 588h209v-588h86v-136h-86v-184h-189v188zM1036 320h184v388z" />
<glyph unicode="&#xbd;" horiz-adv-x="1536" d="M24 1256v120q144 2 197 48q54 45 78 112h137v-920h-188v640h-224zM223 0l869 1512h151l-866 -1512h-154zM952 0q6 162 54 242q44 80 214 246q106 110 107 196q0 43 -22.5 75.5t-67.5 32.5q-56 0 -76 -36q-21 -34 -21 -123v-17h-176q-2 22 -2 44q0 268 281 268 q108 0 188.5 -68t80.5 -172t-46 -166q-48 -63 -162 -174q-84 -80 -116 -118q-33 -41 -35 -95h346v-135h-547z" />
<glyph unicode="&#xbe;" horiz-adv-x="1536" d="M22 868q0 24 2 52h176q0 -30 -4 -52q6 -142 116 -141q32 2 52 19q22 16 32 44q8 24 8 46v8q0 56 -4 80q0 62 -34 90q-32 26 -151 26v136h33q88 0 112 28q26 33 27 117q-1 45 -25 67q-22 16 -55 17h-14q-78 -1 -84 -101q4 -12 4 -36h-176v28q-1 118 59 178q68 66 193 66 q127 0 203 -51q72 -45 71 -189q0 -176 -131 -192q80 -2 121 -66q39 -66 39 -158q0 -66 -20 -126q-20 -64 -56 -94q-72 -68 -217 -68q-148 4 -217 76q-60 60 -60 196zM324 0l876 1512h156l-877 -1512h-155zM920 188v136l304 588h212v-588h84v-136h-84v-188h-189v188h-327z M1061 324h186v376z" />
<glyph unicode="&#xbf;" d="M121 0q8 137 59 223q70 113 156 205q86 90 116 152q26 56 27 176v16h242v-34q-1 -122 -25 -204q-31 -94 -100 -182q-114 -136 -148 -182q-34 -49 -40 -119q0 -37 -4 -67q8 -160 120 -160h8q78 0 105 45q27 47 27 182h252v-27q0 -214 -95 -308q-100 -102 -305 -103 q-252 0 -344 172q-45 80 -51 215zM461 924v264h260v-264h-260z" />
<glyph unicode="&#xc0;" horiz-adv-x="1140" d="M20 0l365 1540h391l344 -1540h-309l-71 387h-336l-80 -387h-304zM236 1968h317l191 -301h-208zM444 616h248l-92 516l-24 236h-4l-23 -236z" />
<glyph unicode="&#xc1;" horiz-adv-x="1140" d="M20 0l365 1540h391l344 -1540h-309l-71 387h-336l-80 -387h-304zM396 1667l196 301h316l-304 -301h-208zM444 616h248l-92 516l-24 236h-4l-23 -236z" />
<glyph unicode="&#xc2;" horiz-adv-x="1140" d="M20 0l365 1540h391l344 -1540h-309l-71 387h-336l-80 -387h-304zM184 1657l232 299h260l236 -299h-236l-127 168l-133 -168h-232zM444 616h248l-92 516l-24 236h-4l-23 -236z" />
<glyph unicode="&#xc3;" horiz-adv-x="1140" d="M20 0l365 1540h391l344 -1540h-309l-71 387h-336l-80 -387h-304zM196 1644q0 96 72 172t172 76q56 0 146 -32q90 -34 122 -40q84 0 103 88h133q-45 -238 -217 -247h-12q-57 1 -143 33q-96 34 -152 34q-40 0 -58 -20q-20 -22 -38 -64h-128zM444 616h248l-92 516l-24 236 h-4l-23 -236z" />
<glyph unicode="&#xc4;" horiz-adv-x="1140" d="M20 0l365 1540h391l344 -1540h-309l-71 387h-336l-80 -387h-304zM248 1696v236h260v-236h-260zM444 616h248l-92 516l-24 236h-4l-23 -236zM643 1696v236h265v-236h-265z" />
<glyph unicode="&#xc5;" horiz-adv-x="1140" d="M20 0l365 1540h391l344 -1540h-309l-71 387h-336l-80 -387h-304zM352 1772q0 96 66 160q64 60 154 60q92 0 157 -60q63 -64 63 -160q0 -90 -63 -152q-65 -64 -157 -64q-90 0 -154 64q-66 62 -66 152zM444 616h248l-92 516l-24 236h-4l-23 -236zM456 1776q0 -50 36 -84 q34 -34 80 -35q56 1 88 33q32 34 32 86t-32 84t-88 32q-46 0 -80 -32q-36 -34 -36 -84z" />
<glyph unicode="&#xc6;" horiz-adv-x="1591" d="M-43 0l588 1536h991v-223h-500v-393h467v-220h-467v-477h500v-223h-788v391h-352l-136 -391h-303zM475 620h273v632h-56z" />
<glyph unicode="&#xc7;" horiz-adv-x="1140" d="M112 637v227q0 358 90.5 526t346.5 183q22 2 45 2q216 -1 326 -111q120 -122 120 -403h-284q0 185 -44 233q-42 46 -128 46q-82 -2 -130 -82q-46 -82 -46 -197v-561q0 -296 184 -304h8q62 0 96 32t48 100q12 68 16 221h288q-12 -189 -38 -305q-28 -116 -126 -199 q-96 -82 -272 -82h-8l-64 -94q16 4 40 8q20 3 44 7q82 0 126 -46q42 -44 42 -110q0 -92 -77 -144q-81 -54 -179 -53q-108 -1 -229 53l41 88q102 -32 160 -32q40 0 72 22t32 62q0 62 -92 67q-10 -2 -34 -6q-26 -4 -42 -8l-48 35l104 160q-152 18 -234 92q-84 74 -118 214 q-36 140 -36 359z" />
<glyph unicode="&#xc8;" d="M131 0v1540h809v-227h-520v-389h477v-224h-477v-477h520v-223h-809zM176 1968h316l192 -301h-209z" />
<glyph unicode="&#xc9;" d="M131 0v1540h809v-227h-520v-389h477v-224h-477v-477h520v-223h-809zM340 1667l196 301h316l-303 -301h-209z" />
<glyph unicode="&#xca;" d="M131 0v1540h809v-227h-520v-389h477v-224h-477v-477h520v-223h-809zM148 1661l233 299h260l235 -299h-235l-129 168l-131 -168h-233z" />
<glyph unicode="&#xcb;" d="M131 0v1540h809v-227h-520v-389h477v-224h-477v-477h520v-223h-809zM184 1700v236h260v-236h-260zM580 1700v236h264v-236h-264z" />
<glyph unicode="&#xcc;" horiz-adv-x="567" d="M-56 1972h316l192 -301h-208zM140 0v1540h288v-1540h-288z" />
<glyph unicode="&#xcd;" horiz-adv-x="567" d="M112 1671l195 301h317l-304 -301h-208zM140 0v1540h288v-1540h-288z" />
<glyph unicode="&#xce;" horiz-adv-x="567" d="M-76 1661l232 299h260l236 -299h-236l-127 168l-133 -168h-232zM140 0v1540h288v-1540h-288z" />
<glyph unicode="&#xcf;" horiz-adv-x="567" d="M-43 1700v236h258v-236h-258zM140 0v1540h288v-1540h-288zM352 1700v236h264v-236h-264z" />
<glyph unicode="&#xd0;" horiz-adv-x="1251" d="M-12 676v196h160v668l579 -4q173 0 273 -116q80 -90 104 -230t24 -434q-4 -346 -84 -551q-82 -205 -336 -205h-560v676h-160zM436 223h152q96 -1 150 47q51 45 69 119q19 72 23 164q2 91 2 227q2 50 2 96q0 92 -6 158q-10 96 -31 156t-62 92q-40 31 -102 31h-197v-441 h136v-196h-136v-453z" />
<glyph unicode="&#xd1;" horiz-adv-x="1251" d="M140 0v1540h300l291 -748l141 -448q-28 368 -38 528q-10 158 -10 324v344h288v-1540h-297l-307 756l-127 412q17 -224 31 -435q12 -213 12 -342v-391h-284zM256 1644q0 96 72 172t172 76q56 0 145 -32q90 -34 123 -40q84 0 104 88h132q-42 -238 -216 -247h-12 q-59 1 -145 33q-96 34 -152 34q-38 0 -55 -18q-18 -20 -39 -66h-129z" />
<glyph unicode="&#xd2;" horiz-adv-x="1251" d="M121 860q2 38 6 102q3 64 17 164q12 98 36 174t52 120q92 112 184 142q90 30 217 30q223 0 333 -109q110 -111 140 -261q26 -150 26 -346v-248q-4 -224 -32 -356q-32 -133 -140 -223t-327 -90q-332 0 -416 166q-84 164 -92 475v33v195v8t-4 24zM289 1972h315l192 -301 h-208zM420 492q0 -296 213 -296q203 0 203 296v532q0 102 -40 211q-41 107 -163 109h-5q-102 0 -153 -74q-55 -78 -55 -222v-556z" />
<glyph unicode="&#xd3;" horiz-adv-x="1251" d="M121 860q2 38 6 102q3 64 17 164q12 98 36 174t52 120q92 112 184 142q90 30 217 30q223 0 333 -109q110 -111 140 -261q26 -150 26 -346v-248q-4 -224 -32 -356q-32 -133 -140 -223t-327 -90q-332 0 -416 166q-84 164 -92 475v33v195v8t-4 24zM420 492q0 -296 213 -296 q203 0 203 296v532q0 102 -40 211q-41 107 -163 109h-5q-102 0 -153 -74q-55 -78 -55 -222v-556zM456 1671l196 301h316l-304 -301h-208z" />
<glyph unicode="&#xd4;" horiz-adv-x="1251" d="M121 860q2 38 6 102q3 64 17 164q12 98 36 174t52 120q92 112 184 142q90 30 217 30q223 0 333 -109q110 -111 140 -261q26 -150 26 -346v-248q-4 -224 -32 -356q-32 -133 -140 -223t-327 -90q-332 0 -416 166q-84 164 -92 475v33v195v8t-4 24zM264 1661l232 299h260 l235 -299h-235l-128 168l-132 -168h-232zM420 492q0 -296 213 -296q203 0 203 296v532q0 102 -40 211q-41 107 -163 109h-5q-102 0 -153 -74q-55 -78 -55 -222v-556z" />
<glyph unicode="&#xd5;" horiz-adv-x="1251" d="M121 860q2 38 6 102q3 64 17 164q12 98 36 174t52 120q92 112 184 142q90 30 217 30q223 0 333 -109q110 -111 140 -261q26 -150 26 -346v-248q-4 -224 -32 -356q-32 -133 -140 -223t-327 -90q-332 0 -416 166q-84 164 -92 475v33v195v8t-4 24zM256 1644q0 96 72 172 t172 76q56 0 145 -32q90 -34 123 -40q84 0 104 88h132q-42 -238 -216 -247h-12q-59 1 -145 33q-96 34 -152 34q-38 0 -55 -18q-18 -20 -39 -66h-129zM420 492q0 -296 213 -296q203 0 203 296v532q0 102 -40 211q-41 107 -163 109h-5q-102 0 -153 -74q-55 -78 -55 -222v-556z " />
<glyph unicode="&#xd6;" horiz-adv-x="1251" d="M121 860q2 38 6 102q3 64 17 164q12 98 36 174t52 120q92 112 184 142q90 30 217 30q223 0 333 -109q110 -111 140 -261q26 -150 26 -346v-248q-4 -224 -32 -356q-32 -133 -140 -223t-327 -90q-332 0 -416 166q-84 164 -92 475v33v195v8t-4 24zM299 1704v236h260v-236 h-260zM420 492q0 -296 213 -296q203 0 203 296v532q0 102 -40 211q-41 107 -163 109h-5q-102 0 -153 -74q-55 -78 -55 -222v-556zM696 1704v236h264v-236h-264z" />
<glyph unicode="&#xd8;" horiz-adv-x="1251" d="M72 -16l120 188q-68 148 -67 461v195v8t-4 24q2 38 6 102q3 64 17 164q12 98 36 174t52 120q92 112 184 142q90 30 217 30q246 0 358 -140l93 148l100 -72l-119 -192q67 -126 67 -460v-248q-4 -224 -32 -356q-32 -133 -140 -223t-327 -90q-249 0 -365 117l-92 -152z M420 563l385 617q-6 158 -172 164h-5q-102 0 -153 -76q-55 -80 -55 -220v-485zM440 352q38 -156 193 -156q203 0 203 296v489z" />
<glyph unicode="&#xd9;" horiz-adv-x="1251" d="M140 436v1104h284v-1084q0 -156 58 -208q57 -56 151 -56q57 0 100 21q41 20 68 80q27 57 27 168v1079h288v-1104q0 -248 -112 -362q-114 -114 -376 -115q-248 1 -368 109q-120 106 -120 368zM289 1972h315l192 -301h-208z" />
<glyph unicode="&#xda;" horiz-adv-x="1251" d="M140 436v1104h284v-1084q0 -156 58 -208q57 -56 151 -56q57 0 100 21q41 20 68 80q27 57 27 168v1079h288v-1104q0 -248 -112 -362q-114 -114 -376 -115q-248 1 -368 109q-120 106 -120 368zM452 1667l195 301h317l-304 -301h-208z" />
<glyph unicode="&#xdb;" horiz-adv-x="1251" d="M140 436v1104h284v-1084q0 -156 58 -208q57 -56 151 -56q57 0 100 21q41 20 68 80q27 57 27 168v1079h288v-1104q0 -248 -112 -362q-114 -114 -376 -115q-248 1 -368 109q-120 106 -120 368zM264 1661l232 299h260l235 -299h-235l-128 168l-132 -168h-232z" />
<glyph unicode="&#xdc;" horiz-adv-x="1251" d="M140 436v1104h284v-1084q0 -156 58 -208q57 -56 151 -56q57 0 100 21q41 20 68 80q27 57 27 168v1079h288v-1104q0 -248 -112 -362q-114 -114 -376 -115q-248 1 -368 109q-120 106 -120 368zM297 1700v236h258v-236h-258zM692 1700v236h264v-236h-264z" />
<glyph unicode="&#xdd;" horiz-adv-x="1140" d="M24 1540h312l180 -448q32 -78 52 -195h4q16 95 56 195l177 448h311l-404 -888v-652h-288v652zM400 1671l196 301h316l-304 -301h-208z" />
<glyph unicode="&#xde;" horiz-adv-x="1140" d="M140 0v1536h284v-320h303q184 0 270.5 -125t86.5 -307q0 -464 -464 -464h-196v-320h-284zM424 549h172q112 0 154 57q38 58 38 166q0 117 -38 168q-41 51 -158 51h-168v-442z" />
<glyph unicode="&#xdf;" d="M125 0v1188q1 192 107 290t260 99q142 1 250 -71q106 -74 130 -193q12 -111 12 -149q0 -228 -163 -271q119 -20 159 -166q32 -127 32 -256v-43q-18 -456 -275 -456q-73 0 -153 28v192q20 -8 61 -16q98 6 98 176v244q-1 86 -23 133q-24 47 -116 47v201q70 5 98 27 q26 20 26 104v135q0 61 -32 93q-35 32 -84 32q-51 0 -88 -37q-37 -39 -37 -111v-1220h-262z" />
<glyph unicode="&#xe0;" d="M88 289v29q0 121 47 188q51 76 149 135q54 33 158 76q102 41 134 67q40 34 40 92q0 106 -132 107q-82 -5 -99 -31q-37 -45 -37 -141h-252v25q0 182 92 264q96 84 300 88q206 0 300 -76q92 -76 92 -236v-696q0 -108 23 -180h-256q-11 24 -19 92q4 16 5 37 q-94 -157 -248 -157q-58 0 -129 20q-168 55 -168 297zM176 1587h316l192 -299h-209zM344 320q12 -131 131 -148q45 6 57 12q32 20 50 42q14 20 24 86q6 52 6 128v39v129q-60 -38 -122 -78q-64 -44 -101 -92q-39 -50 -45 -118z" />
<glyph unicode="&#xe1;" d="M88 289v29q0 121 47 188q51 76 149 135q54 33 158 76q102 41 134 67q40 34 40 92q0 106 -132 107q-82 -5 -99 -31q-37 -45 -37 -141h-252v25q0 182 92 264q96 84 300 88q206 0 300 -76q92 -76 92 -236v-696q0 -108 23 -180h-256q-11 24 -19 92q4 16 5 37 q-94 -157 -248 -157q-58 0 -129 20q-168 55 -168 297zM344 320q12 -131 131 -148q45 6 57 12q32 20 50 42q14 20 24 86q6 52 6 128v39v129q-60 -38 -122 -78q-64 -44 -101 -92q-39 -50 -45 -118zM344 1288l196 299h316l-303 -299h-209z" />
<glyph unicode="&#xe2;" d="M88 289v29q0 121 47 188q51 76 149 135q54 33 158 76q102 41 134 67q40 34 40 92q0 106 -132 107q-82 -5 -99 -31q-37 -45 -37 -141h-252v25q0 182 92 264q96 84 300 88q206 0 300 -76q92 -76 92 -236v-696q0 -108 23 -180h-256q-11 24 -19 92q4 16 5 37 q-94 -157 -248 -157q-58 0 -129 20q-168 55 -168 297zM152 1280l233 299h258l237 -299h-237l-127 168l-131 -168h-233zM344 320q12 -131 131 -148q45 6 57 12q32 20 50 42q14 20 24 86q6 52 6 128v39v129q-60 -38 -122 -78q-64 -44 -101 -92q-39 -50 -45 -118z" />
<glyph unicode="&#xe3;" d="M88 289v29q0 121 47 188q51 76 149 135q54 33 158 76q102 41 134 67q40 34 40 92q0 106 -132 107q-82 -5 -99 -31q-37 -45 -37 -141h-252v25q0 182 92 264q96 84 300 88q206 0 300 -76q92 -76 92 -236v-696q0 -108 23 -180h-256q-11 24 -19 92q4 16 5 37 q-94 -157 -248 -157q-58 0 -129 20q-168 55 -168 297zM140 1264q0 100 73 174q74 74 172 74q53 0 143 -34t124 -38q84 0 104 88h133q-43 -234 -217 -248h-12q-60 0 -146 33q-96 35 -150 35q-58 0 -96 -84h-128zM344 320q12 -131 131 -148q45 6 57 12q32 20 50 42 q14 20 24 86q6 52 6 128v39v129q-60 -38 -122 -78q-64 -44 -101 -92q-39 -50 -45 -118z" />
<glyph unicode="&#xe4;" d="M88 289v29q0 121 47 188q51 76 149 135q54 33 158 76q102 41 134 67q40 34 40 92q0 106 -132 107q-82 -5 -99 -31q-37 -45 -37 -141h-252v25q0 182 92 264q96 84 300 88q206 0 300 -76q92 -76 92 -236v-696q0 -108 23 -180h-256q-11 24 -19 92q4 16 5 37 q-94 -157 -248 -157q-58 0 -129 20q-168 55 -168 297zM184 1321v235h260v-235h-260zM344 320q12 -131 131 -148q45 6 57 12q32 20 50 42q14 20 24 86q6 52 6 128v39v129q-60 -38 -122 -78q-64 -44 -101 -92q-39 -50 -45 -118zM580 1321v235h264v-235h-264z" />
<glyph unicode="&#xe5;" d="M88 289v29q0 121 47 188q51 76 149 135q54 33 158 76q102 41 134 67q40 34 40 92q0 106 -132 107q-82 -5 -99 -31q-37 -45 -37 -141h-252v25q0 182 92 264q96 84 300 88q206 0 300 -76q92 -76 92 -236v-696q0 -108 23 -180h-256q-11 24 -19 92q4 16 5 37 q-94 -157 -248 -157q-58 0 -129 20q-168 55 -168 297zM293 1512q0 94 65.5 157t153.5 63t153.5 -63t65.5 -157q0 -88 -65.5 -152t-153.5 -64t-153.5 64t-65.5 152zM344 320q12 -131 131 -148q45 6 57 12q32 20 50 42q14 20 24 86q6 52 6 128v39v129q-60 -38 -122 -78 q-64 -44 -101 -92q-39 -50 -45 -118zM396 1516q0 -48 32 -84q33 -36 84 -36t86 33t35 87q0 51 -35 83.5t-86 32.5t-84 -34q-32 -34 -32 -82z" />
<glyph unicode="&#xe6;" horiz-adv-x="1480" d="M90 295q0 121 47 201q56 92 127 132q70 39 184.5 88.5t139.5 84.5q28 35 28 79q0 56 -44 82q-36 22 -84 23q-10 0 -23 -2q-103 -14 -103 -137q0 -12 2 -27h-268v31q0 227 172 303q92 35 203 35q191 0 293 -72q72 72 248 72q156 0 260 -84t104 -276v-296h-504v-200 q0 -80 36 -119q32 -41 83 -45q52 4 86 35q35 29 35 81v107h264q4 -30 4 -59q0 -104 -40 -178q-52 -96 -144 -141.5t-196 -45.5q-92 0 -168 35q-76 34 -111 94q-29 -58 -111 -92q-82 -37 -178 -37q-90 1 -143 21q-180 66 -197 260q-2 24 -2 47zM356 299q0 -60 33 -92 q31 -35 76 -39q57 4 100 51q43 45 43 117v272q-44 -27 -92 -57q-51 -31 -84 -59q-32 -28 -55 -76q-21 -44 -21 -104v-13zM872 735h240v117q0 64 -32 98q-34 32 -84 33q-48 -1 -84 -33q-40 -35 -40 -98v-117z" />
<glyph unicode="&#xe7;" horiz-adv-x="907" d="M100 377v379q0 238 92 336q90 96 273 96q185 0 275 -94q88 -96 88 -258v-80h-269v124q-1 46 -23 74q-24 26 -67 27q-41 0 -69 -35q-32 -36 -32 -102v-484q0 -98 23 -141t74 -43q94 0 94 184v92h269v-124q0 -84 -27 -164q-29 -82 -103 -138q-74 -54 -206 -54l-60 -97 q37 6 70 6q68 -1 112 -29q66 -42 66 -120t-64 -138q-66 -60 -188 -59q-104 -1 -232 53l36 84q82 -32 153 -32q56 0 86 24q29 24 29 56q0 66 -92 71q-68 -13 -84 -19l-40 44l103 160q-287 24 -287 401z" />
<glyph unicode="&#xe8;" d="M108 444v344q0 400 408 400q174 -2 258 -66t108 -164q26 -102 26 -274v-160h-531v-176q0 -170 127 -176q12 4 32 4q100 12 101 188v27h266q2 -21 2 -39q1 -168 -79 -266q-88 -112 -273 -114h-29q-92 0 -178 22q-98 26 -168 135q-70 105 -70 315zM176 1587h316l192 -299 h-209zM377 727h264v117q0 139 -133 139q-131 0 -131 -139v-117z" />
<glyph unicode="&#xe9;" d="M108 444v344q0 400 408 400q174 -2 258 -66t108 -164q26 -102 26 -274v-160h-531v-176q0 -170 127 -176q12 4 32 4q100 12 101 188v27h266q2 -21 2 -39q1 -168 -79 -266q-88 -112 -273 -114h-29q-92 0 -178 22q-98 26 -168 135q-70 105 -70 315zM344 1288l196 299h316 l-303 -299h-209zM377 727h264v117q0 139 -133 139q-131 0 -131 -139v-117z" />
<glyph unicode="&#xea;" d="M108 444v344q0 400 408 400q174 -2 258 -66t108 -164q26 -102 26 -274v-160h-531v-176q0 -170 127 -176q12 4 32 4q100 12 101 188v27h266q2 -21 2 -39q1 -168 -79 -266q-88 -112 -273 -114h-29q-92 0 -178 22q-98 26 -168 135q-70 105 -70 315zM148 1280l233 299h260 l235 -299h-235l-129 168l-131 -168h-233zM377 727h264v117q0 139 -133 139q-131 0 -131 -139v-117z" />
<glyph unicode="&#xeb;" d="M108 444v344q0 400 408 400q174 -2 258 -66t108 -164q26 -102 26 -274v-160h-531v-176q0 -170 127 -176q12 4 32 4q100 12 101 188v27h266q2 -21 2 -39q1 -168 -79 -266q-88 -112 -273 -114h-29q-92 0 -178 22q-98 26 -168 135q-70 105 -70 315zM184 1321v235h260v-235 h-260zM377 727h264v117q0 139 -133 139q-131 0 -131 -139v-117zM580 1321v235h264v-235h-264z" />
<glyph unicode="&#xec;" horiz-adv-x="567" d="M-51 1587h315l192 -299h-208zM152 0v1155h264v-1155h-264z" />
<glyph unicode="&#xed;" horiz-adv-x="567" d="M108 1288l195 299h317l-304 -299h-208zM152 0v1155h264v-1155h-264z" />
<glyph unicode="&#xee;" horiz-adv-x="567" d="M-100 1280l231 299h260l237 -299h-237l-127 168l-133 -168h-231zM152 0v1155h264v-1155h-264z" />
<glyph unicode="&#xef;" horiz-adv-x="567" d="M-43 1321v235h258v-235h-258zM152 0v1155h264v-1155h-264zM352 1321v235h264v-235h-264z" />
<glyph unicode="&#xf0;" d="M92 600q4 238 48 375q43 135 159 180q81 29 189 29q54 0 120 -8q-10 52 -36 88q-26 37 -60 49l-135 -93l-88 88l59 48q-10 2 -39 6l-29 2q-37 4 -108 4v168q278 -8 381 -37l8 4h-2l129 84l88 -88l-80 -63q102 -72 140 -189q35 -118 57 -307q10 -154 10 -272v-216 q0 -192 -45 -298q-45 -108 -137.5 -147.5t-232.5 -39.5q-192 1 -288 101q-96 98 -104 332q0 137 -4 200zM360 328q0 -152 144 -152h8q51 0 86 39q39 43 39 113v516q0 68 -41 104q-42 35 -100 35q-54 0 -94 -39q-42 -40 -42 -120v-496z" />
<glyph unicode="&#xf1;" d="M125 0v1155h266v-131q23 76 95 119q72 41 151 41q111 0 187 -66q76 -68 75 -190v-928h-262v788q0 88 -24.5 129t-88.5 43h-12q-47 0 -82 -40q-39 -48 -39 -140v-780h-266zM140 1264q0 100 73 174q74 74 172 74q53 0 143 -34t124 -38q84 0 104 88h133q-43 -234 -217 -248 h-12q-60 0 -146 33q-96 35 -150 35q-58 0 -96 -84h-128z" />
<glyph unicode="&#xf2;" d="M108 576q0 230 29 358t117 192q88 62 262 62q170 0 256 -62q84 -64 112 -184q28 -123 28 -342v-200q0 -205 -82 -320q-84 -117 -302 -117q-184 -1 -272 57q-88 56 -116 185q-32 129 -32 371zM176 1587h316l192 -299h-209zM377 340q0 -162 131 -168q78 0 108 39 q30 37 31 129v408q0 137 -24.5 186t-106.5 49t-110 -51q-28 -54 -29 -172v-420z" />
<glyph unicode="&#xf3;" d="M108 576q0 230 29 358t117 192q88 62 262 62q170 0 256 -62q84 -64 112 -184q28 -123 28 -342v-200q0 -205 -82 -320q-84 -117 -302 -117q-184 -1 -272 57q-88 56 -116 185q-32 129 -32 371zM344 1288l196 299h316l-303 -299h-209zM377 340q0 -162 131 -168q78 0 108 39 q30 37 31 129v408q0 137 -24.5 186t-106.5 49t-110 -51q-28 -54 -29 -172v-420z" />
<glyph unicode="&#xf4;" d="M108 576q0 230 29 358t117 192q88 62 262 62q170 0 256 -62q84 -64 112 -184q28 -123 28 -342v-200q0 -205 -82 -320q-84 -117 -302 -117q-184 -1 -272 57q-88 56 -116 185q-32 129 -32 371zM148 1276l233 301h260l235 -301h-235l-129 168l-131 -168h-233zM377 340 q0 -162 131 -168q78 0 108 39q30 37 31 129v408q0 137 -24.5 186t-106.5 49t-110 -51q-28 -54 -29 -172v-420z" />
<glyph unicode="&#xf5;" d="M108 576q0 230 29 358t117 192q88 62 262 62q170 0 256 -62q84 -64 112 -184q28 -123 28 -342v-200q0 -205 -82 -320q-84 -117 -302 -117q-184 -1 -272 57q-88 56 -116 185q-32 129 -32 371zM140 1264q0 100 73 174q74 74 172 74q53 0 143 -34t124 -38q84 0 104 88h133 q-43 -234 -217 -248h-12q-60 0 -146 33q-96 35 -150 35q-58 0 -96 -84h-128zM377 340q0 -162 131 -168q78 0 108 39q30 37 31 129v408q0 137 -24.5 186t-106.5 49t-110 -51q-28 -54 -29 -172v-420z" />
<glyph unicode="&#xf6;" d="M108 576q0 230 29 358t117 192q88 62 262 62q170 0 256 -62q84 -64 112 -184q28 -123 28 -342v-200q0 -205 -82 -320q-84 -117 -302 -117q-184 -1 -272 57q-88 56 -116 185q-32 129 -32 371zM184 1321v235h260v-235h-260zM377 340q0 -162 131 -168q78 0 108 39 q30 37 31 129v408q0 137 -24.5 186t-106.5 49t-110 -51q-28 -54 -29 -172v-420zM580 1321v235h264v-235h-264z" />
<glyph unicode="&#xf8;" d="M16 -47l140 199q-24 76 -35 186q-13 108 -13 238q0 230 29 358t117 192q88 62 262 62q194 0 285 -88l107 164l100 -72l-136 -205q40 -118 40 -387v-200q0 -205 -82 -320q-84 -117 -302 -117q-198 0 -296 74l-107 -158zM377 448l266 400q-2 135 -127 135q-82 0 -110 -51 q-28 -54 -29 -172v-312zM381 293q10 -121 127 -121q76 0 108 39q30 39 31 129v352z" />
<glyph unicode="&#xf9;" d="M116 293v862h269v-823q1 -156 103 -156h12q116 0 116 201v778h268v-1155h-256v184q-48 -218 -260 -217q-80 0 -145 33q-107 56 -107 293zM172 1587h316l192 -299h-209z" />
<glyph unicode="&#xfa;" d="M116 293v862h269v-823q1 -156 103 -156h12q116 0 116 201v778h268v-1155h-256v184q-48 -218 -260 -217q-80 0 -145 33q-107 56 -107 293zM344 1288l196 299h316l-303 -299h-209z" />
<glyph unicode="&#xfb;" d="M116 293v862h269v-823q1 -156 103 -156h12q116 0 116 201v778h268v-1155h-256v184q-48 -218 -260 -217q-80 0 -145 33q-107 56 -107 293zM148 1300l233 300h260l235 -300h-235l-129 168l-131 -168h-233z" />
<glyph unicode="&#xfc;" d="M116 293v862h269v-823q1 -156 103 -156h12q116 0 116 201v778h268v-1155h-256v184q-48 -218 -260 -217q-80 0 -145 33q-107 56 -107 293zM184 1321v235h260v-235h-260zM580 1321v235h264v-235h-264z" />
<glyph unicode="&#xfd;" horiz-adv-x="907" d="M12 1155h281l123 -651l32 -268l36 268l124 651h272l-308 -1280q-33 -156 -97 -213q-67 -58 -191 -58q-80 0 -128 5v207h53h31q45 0 61 10q15 8 15 39q0 19 -19 111zM284 1288l195 299h317l-304 -299h-208z" />
<glyph unicode="&#xfe;" d="M121 -387v1923h251v-516q60 164 228 164q52 0 76 -4q116 -18 170 -117q51 -99 51 -311v-367q-1 -418 -269 -418q-170 0 -256 158v-512h-251zM385 381q0 -95 35 -149q34 -56 88 -60q120 0 120 209v424q0 82 -24 131q-24 45 -92 45h-4q-56 1 -88 -53q-35 -54 -35 -136v-411 z" />
<glyph unicode="&#xff;" horiz-adv-x="907" d="M12 1155h281l123 -651l32 -268l36 268l124 651h272l-308 -1280q-33 -156 -97 -213q-67 -58 -191 -58q-80 0 -128 5v207h53h31q45 0 61 10q15 8 15 39q0 19 -19 111zM129 1321v235h258v-235h-258zM524 1321v235h264v-235h-264z" />
<glyph unicode="&#x152;" horiz-adv-x="1704" d="M125 628v292q0 330 129 491q127 162 301 162q105 0 187 -45q80 -47 114 -123v135h768v-227h-508v-393h471v-224h-471v-473h508v-223h-776v156q-133 -188 -295 -189q-61 0 -141 25q-144 49 -216 217q-72 165 -71 419zM412 633q0 -437 212 -437h13q80 0 133 54 q58 57 58 225v649q0 96 -54 158q-55 62 -133 62q-91 0 -159 -101q-70 -102 -70 -311v-299z" />
<glyph unicode="&#x153;" horiz-adv-x="1480" d="M96 391v344q0 330 184 414q96 39 191 39q187 0 277 -121q28 56 104 88q74 33 168 33q90 0 172 -33q196 -84 196 -424v-203h-504v-208q0 -70 35 -109t85 -43q52 4 86 43q34 37 34 105v75h264q0 -211 -69 -299t-195 -108q-68 -12 -124 -12q-162 0 -252 108 q-88 -108 -277 -108q-37 0 -107 8q-268 49 -268 411zM360 324q0 -70 38 -109q34 -39 86 -43q55 4 93.5 45t38.5 111v512q0 70 -36 106q-38 35 -92 35q-52 0 -88 -39q-40 -40 -40 -106v-512zM884 731h240v133q0 55 -35 86t-85 31q-46 -1 -82 -31q-38 -33 -38 -90v-129z" />
<glyph unicode="&#x2c6;" horiz-adv-x="680" d="M-24 1321l233 299h260l235 -299h-235l-129 168l-131 -168h-233z" />
<glyph unicode="&#x2dc;" horiz-adv-x="680" d="M-33 1304q0 98 74 174q72 74 172 74q53 0 143 -32q90 -34 123 -40q85 0 105 89h133q-45 -238 -217 -248h-12q-60 1 -146 33q-96 34 -150 34q-39 0 -57 -20q-21 -22 -39 -64h-129z" />
<glyph unicode="&#x2000;" horiz-adv-x="1016" />
<glyph unicode="&#x2001;" horiz-adv-x="2032" />
<glyph unicode="&#x2002;" horiz-adv-x="1016" />
<glyph unicode="&#x2003;" horiz-adv-x="2032" />
<glyph unicode="&#x2004;" horiz-adv-x="677" />
<glyph unicode="&#x2005;" horiz-adv-x="508" />
<glyph unicode="&#x2006;" horiz-adv-x="338" />
<glyph unicode="&#x2007;" horiz-adv-x="338" />
<glyph unicode="&#x2008;" horiz-adv-x="254" />
<glyph unicode="&#x2009;" horiz-adv-x="406" />
<glyph unicode="&#x200a;" horiz-adv-x="112" />
<glyph unicode="&#x2010;" horiz-adv-x="680" d="M96 524v236h492v-236h-492z" />
<glyph unicode="&#x2011;" horiz-adv-x="680" d="M96 524v236h492v-236h-492z" />
<glyph unicode="&#x2012;" horiz-adv-x="680" d="M96 524v236h492v-236h-492z" />
<glyph unicode="&#x2013;" d="M0 532v224h1024v-224h-1024z" />
<glyph unicode="&#x2014;" horiz-adv-x="2048" d="M0 532v228h2044h8v-228h-2044h-8z" />
<glyph unicode="&#x2018;" horiz-adv-x="567" d="M156 1016v264q0 90 28 150q26 60 66 86q36 26 80 38q42 12 74 19v-97q-132 -14 -132 -172v-24h132v-264h-248z" />
<glyph unicode="&#x2019;" horiz-adv-x="567" d="M164 983v92q62 11 98 53q35 40 35 132v12h-133v264h248v-264q0 -260 -248 -289z" />
<glyph unicode="&#x201c;" d="M180 1016v264q0 256 248 289v-93q-60 -4 -98 -52q-34 -42 -35 -114q0 -14 2 -30h131v-264h-248zM580 1016v264q0 258 252 289v-93q-62 -4 -101 -50q-33 -39 -33 -113q0 -16 2 -33h132v-264h-252z" />
<glyph unicode="&#x201d;" d="M196 983v92q66 15 99 53q33 35 33 144h-132v264h248v-264q0 -108 -53 -190q-53 -84 -195 -99zM600 983v92q60 13 96 51q30 30 31 115v31h-127v264h248v-264q0 -262 -248 -289z" />
<glyph unicode="&#x201e;" d="M196 4v264h248v-264q0 -112 -44 -186q-48 -74 -204 -98v92q62 14 99 51q31 29 31 107q0 16 -2 34h-128zM600 4v264h248v-264q0 -152 -66 -204q-66 -56 -182 -84v96q72 20 102 57q24 31 27 105q0 14 -2 30h-127z" />
<glyph unicode="&#x2022;" horiz-adv-x="680" d="M209 377v266h266v-266h-266z" />
<glyph unicode="&#x2026;" horiz-adv-x="2048" d="M209 0v268h266v-268h-266zM889 0v268h270v-268h-270zM1573 0v268h270v-268h-270z" />
<glyph unicode="&#x202f;" horiz-adv-x="406" />
<glyph unicode="&#x2039;" horiz-adv-x="567" d="M121 420v208l319 288v-228l-192 -156l192 -172v-231z" />
<glyph unicode="&#x203a;" horiz-adv-x="567" d="M129 129v231l191 164l-191 164v228l323 -288v-212z" />
<glyph unicode="&#x205f;" horiz-adv-x="508" />
<glyph unicode="&#x2122;" horiz-adv-x="1759" d="M4 1376v164h633v-164h-237v-668h-164v668h-232zM725 708v832h262l168 -492l166 492h266v-832h-163v680l-220 -680h-96l-219 676v-676h-164z" />
<glyph unicode="&#x25fc;" horiz-adv-x="1155" d="M0 0v1155h1155v-1155h-1155z" />
<glyph unicode="&#xfb01;" d="M20 960v195h105v141q-1 141 71 191q70 49 191 49h117v-215q-48 15 -64 15q-54 0 -53 -40v-141h117v-195h-117v-960h-262v960h-105zM647 0v1155h269v-1155h-269zM647 1296v240h269v-240h-269z" />
<glyph unicode="&#xfb02;" d="M20 960v195h105v125q0 130 55 194q56 62 211 62h113v-215q-41 15 -68 15q-45 0 -45 -52v-129h113v-195h-113v-960h-266v960h-105zM641 0v1536h267v-1536h-267z" />
</font>
</defs>
</svg>
